<svg width="647" height="302" viewBox="0 0 647 302" fill="none" xmlns="http://www.w3.org/2000/svg">
<rect width="647" height="302" fill="#1E1E1E"/>
<g clip-path="url(#clip0_52_2)">
<rect width="647" height="302" fill="white"/>
<rect y="-1" width="647" height="303" fill="#659327"/>
<ellipse cx="319" cy="-202.5" rx="397" ry="382.5" fill="#588EA9"/>
<path d="M543.958 -28.2193C706.497 -49.8385 638.754 -1.72482 595.33 45.2404C380.979 57.5226 259.252 58.9639 37.578 45.2404C14.0208 2.92921 -53.8782 -38.658 84.0573 -28.2193C87.9848 -50.9635 134.772 -47.0827 221.049 -39.1022C306.295 -62.3012 332.518 -55.2269 390.97 -39.4579L392.289 -39.1022C525.745 -53.923 538.711 -46.3393 543.958 -28.2193Z" fill="#ED4B14" stroke="#ED4B14"/>
<path d="M507.973 40.5895C648.404 30.8707 589.875 52.4999 552.358 73.6126C367.161 79.134 261.991 79.7819 70.4669 73.6126C50.1138 54.592 -8.55013 35.8968 110.624 40.5895C114.018 30.365 154.441 32.1096 228.984 35.6972C302.635 25.2683 325.292 28.4485 375.794 35.5373L376.933 35.6972C492.237 29.0346 503.44 32.4438 507.973 40.5895Z" fill="#EE690E" stroke="#EE690E"/>
<path d="M488.051 61.2451C614.163 50.138 561.602 74.857 527.91 98.9859C361.597 105.296 267.151 106.037 95.1563 98.9859C76.8786 77.248 24.1965 55.8821 131.219 61.2451C134.266 49.56 170.568 51.5538 237.509 55.6539C303.651 43.7351 323.997 47.3697 369.35 55.4712L370.373 55.6539C473.92 48.0395 483.98 51.9358 488.051 61.2451Z" fill="#E97927" stroke="#E97927"/>
<circle cx="154.5" cy="130.5" r="77.5" fill="white"/>
<path d="M147.269 89.0896C167.372 89.0896 183.802 108.327 183.802 132.236C183.802 156.145 167.372 175.383 147.269 175.383C127.166 175.382 110.736 156.145 110.736 132.236C110.736 108.327 127.166 89.0897 147.269 89.0896Z" fill="#58302E" stroke="#58302E"/>
<circle cx="128.752" cy="111.872" r="15.3714" fill="white" stroke="white"/>
<path d="M64.5829 58.7488C88.0189 37.2024 123.836 20.7857 170.386 32.2771L171.487 32.5545L171.572 32.576L171.645 32.6258C203.135 54.1166 222.812 72.078 233.579 92.1385C244.356 112.219 246.17 134.335 242.102 164.046L242.092 164.123L242.058 164.193C221.411 207.397 180.091 224.689 138.465 216.547C96.8521 208.407 54.9768 174.872 33.0555 116.54L33.0526 116.531C32.2192 114.192 32.3462 110.749 33.3114 106.632C34.2813 102.494 36.1155 97.6029 38.7792 92.323C44.1072 81.7619 52.7774 69.6025 64.5829 58.7488ZM184.569 91.4676C173.853 79.9743 159.656 74.5606 145.752 74.8611C131.849 75.1618 118.236 81.1756 108.69 92.5281C99.1407 103.885 93.6911 120.549 96.0389 142.096L96.0438 142.141L96.0565 142.185C98.7746 151.279 105.98 158.735 115.393 164.114C124.811 169.495 136.483 172.825 148.229 173.648C171.678 175.292 195.698 166.935 202.473 144.568L202.495 144.498V144.424C202.495 120.507 195.287 102.963 184.569 91.4676Z" fill="#E7BB52"/>
<path d="M98.603 154.045C100.123 156.882 101.841 159.754 103.767 162.656C101.66 159.994 99.9136 157.118 98.603 154.045C48.8516 61.2056 210.481 5.7667 201.517 152.075C201.517 46.2652 87.7525 54.201 97.01 149.429C97.4323 151.013 97.9662 152.552 98.603 154.045Z" fill="#816825"/>
<path d="M201.517 152.075C210.755 1.29621 38.815 64.7819 103.767 162.656C100.637 158.701 98.3013 154.272 97.01 149.429C87.7525 54.201 201.517 46.2652 201.517 152.075Z" stroke="#816825"/>
<circle cx="77.5" cy="77.5" r="77.5" transform="matrix(-1 0 0 1 571.1 52.5)" fill="white"/>
<circle cx="150" cy="203" r="12" fill="#E7BB52"/>
<path d="M500.83 88.5891C480.727 88.5891 464.297 107.826 464.297 131.736C464.297 155.645 480.727 174.882 500.83 174.882C520.933 174.882 537.363 155.645 537.363 131.736C537.363 107.826 520.933 88.5892 500.83 88.5891Z" fill="#58302E" stroke="#58302E"/>
<circle cx="15.8714" cy="15.8714" r="15.3714" transform="matrix(-1 0 0 1 495.742 95.9999)" fill="white" stroke="white"/>
<path d="M583.516 58.2494C560.08 36.7029 524.263 20.2861 477.713 31.7777L476.612 32.055L476.527 32.0765L476.454 32.1263C444.964 53.6171 425.287 71.5785 414.52 91.639C403.743 111.72 401.929 133.836 405.997 163.546L406.007 163.623L406.041 163.694C426.688 206.898 468.008 224.189 509.634 216.047C551.247 207.908 593.122 174.372 615.044 116.04L615.046 116.032C615.88 113.693 615.753 110.25 614.788 106.132C613.818 101.995 611.984 97.1035 609.32 91.8236C603.992 81.2625 595.322 69.103 583.516 58.2494ZM500.193 109.5C506.954 109.512 513.582 109.756 518.24 110.217C520.559 110.447 522.426 110.734 523.579 111.084C523.869 111.173 524.129 111.269 524.343 111.376C524.551 111.48 524.755 111.61 524.9 111.785C525.059 111.976 525.158 112.24 525.079 112.535C525.009 112.792 524.824 112.982 524.644 113.119L524.568 113.178L524.475 113.204C523.771 113.4 522.531 113.569 520.928 113.717C519.312 113.866 517.288 113.996 514.992 114.105C510.399 114.323 504.702 114.459 498.967 114.493C493.232 114.526 487.452 114.457 482.695 114.268C477.963 114.079 474.176 113.77 472.473 113.302L472.106 113.201V112.82C472.106 112.535 472.238 112.301 472.403 112.125C472.564 111.954 472.777 111.814 473.009 111.695C473.475 111.456 474.125 111.25 474.903 111.069C476.468 110.703 478.679 110.407 481.29 110.174C486.518 109.708 493.431 109.488 500.193 109.5Z" fill="#E7BB52"/>
<path d="M566.17 157.289C564.283 158.841 562.151 160.412 559.761 162C562.376 160.544 564.543 158.97 566.17 157.289C627.914 106.499 427.322 76.1699 438.447 156.211C438.447 98.3257 579.636 102.667 568.147 154.764C567.623 155.631 566.96 156.473 566.17 157.289Z" fill="#816825"/>
<path d="M438.447 156.211C426.982 73.7242 640.37 108.456 559.761 162C563.646 159.836 566.544 157.413 568.147 154.764C579.636 102.667 438.447 98.3257 438.447 156.211Z" stroke="#816825"/>
<ellipse cx="323.568" cy="172.078" rx="85.142" ry="110.31" fill="black" fill-opacity="0.1"/>
<ellipse cx="323.568" cy="160.833" rx="85.142" ry="110.845" fill="#B77C38"/>
<ellipse cx="324.142" cy="139.845" rx="85.142" ry="110.845" fill="#7A463B"/>
<ellipse cx="323" cy="229.5" rx="34" ry="11.5" fill="#B35C52"/>
<path d="M395.715 211.876C447.012 125.722 380.433 15.5765 322.585 20.1372C271.287 16.6669 198.157 121.36 249.456 211.876C251.639 231.506 293.115 230.415 320.402 280.581C322.297 282.988 323.492 282.992 325.859 280.581C353.146 230.415 393.532 231.506 395.715 211.876Z" fill="#E6A22A" stroke="#E6A22A"/>
<path d="M395.405 214.46C395.537 213.915 395.637 213.354 395.702 212.774C395.989 213.373 395.874 213.915 395.405 214.46C391.129 232.033 352.56 232.462 326.245 280.245C355.023 224.978 390.979 219.593 395.405 214.46Z" fill="#AE762A"/>
<path d="M395.702 212.774C393.532 232.052 353.376 230.981 326.245 280.245C358.077 219.112 398.692 219.012 395.702 212.774Z" stroke="#AE762A"/>
<path d="M249.596 214.46C249.461 213.915 249.36 213.354 249.294 212.774C249.002 213.373 249.119 213.915 249.596 214.46C253.937 232.033 293.099 232.462 319.819 280.245C290.599 224.978 254.089 219.593 249.596 214.46Z" fill="#AE762A"/>
<path d="M249.294 212.774C251.498 232.052 292.271 230.981 319.819 280.245C287.498 219.112 246.258 219.012 249.294 212.774Z" stroke="#AE762A"/>
<path d="M334.904 185.298C367.697 115.374 361.023 84.8058 328.61 43.0106C327.961 42.1736 326.635 42.7956 326.858 43.831C337.41 92.8704 340.289 124.47 333.012 184.774C332.877 185.899 334.423 186.324 334.904 185.298Z" fill="#EEB453" stroke="#EEB453"/>
<path d="M283.472 87.7663C266.588 71.9926 270.393 61.3162 277.165 60.501C294.048 76.2747 290.243 86.9511 283.472 87.7663Z" fill="#AA6718" stroke="#AA6718"/>
<path d="M362.299 85.5837C379.183 69.81 375.378 59.1336 368.606 58.3184C351.723 74.092 355.528 84.7685 362.299 85.5837Z" fill="#AA6718" stroke="#AA6718"/>
</g>
<defs>
<clipPath id="clip0_52_2">
<rect width="647" height="302" fill="white"/>
</clipPath>
</defs>
</svg>
