<svg xmlns="http://www.w3.org/2000/svg" viewBox="0 0 720 625" width="720" height="625" role="img" aria-label="Pikobot">
<defs>
<linearGradient id="alaI" x1="1" y1="0" x2="0" y2="1"><stop offset="0" stop-color="#197249"></stop><stop offset=".7" stop-color="#0F5D3D"></stop></linearGradient>
<linearGradient id="alaD" x1="0" y1="0" x2="1" y2="1"><stop offset="0" stop-color="#197249"></stop><stop offset=".7" stop-color="#0F5D3D"></stop></linearGradient>
<pattern id="hojas" width="10" height="10" patternUnits="userSpaceOnUse"><rect width="10" height="5" fill="#EFE3CC"></rect><rect y="5" width="10" height="5" fill="#DCCBAE"></rect></pattern>
<radialGradient id="libroGlow"><stop offset="0" stop-color="#60C5FA" stop-opacity=".5"></stop><stop offset="1" stop-color="#60C5FA" stop-opacity="0"></stop></radialGradient>
<filter id="glow" x="-100%" y="-100%" width="300%" height="300%"><feGaussianBlur stdDeviation="14"></feGaussianBlur></filter>
<filter id="soft"><feGaussianBlur stdDeviation="1.2"></feGaussianBlur></filter>
<filter id="sombra" x="-20%" y="-200%" width="140%" height="500%"><feGaussianBlur stdDeviation="8"></feGaussianBlur></filter>
<clipPath id="caraClip"><rect x="122" y="142" width="476" height="222.2" rx="12"></rect></clipPath>
</defs>
<ellipse cx="360" cy="605.1823802163833" rx="270" ry="13" fill="#031A2C" opacity=".3" filter="url(#sombra)"></ellipse>
<ellipse cx="360" cy="444.1823802163833" rx="284" ry="30" fill="url(#libroGlow)"></ellipse>
<path d="M50 454.1823802163833a14 14 0 0 1 14-14h592a14 14 0 0 1 14 14v12H50z" fill="#5C3A24"></path>
<rect x="50" y="466.1823802163833" width="620" height="86" fill="url(#hojas)"></rect>
<rect x="50" y="466.1823802163833" width="18" height="86" fill="#4A2E1C"></rect>
<rect x="660" y="466.1823802163833" width="10" height="86" fill="#4A2E1C"></rect>
<path d="M50 552.1823802163833h620v6a16 16 0 0 1-16 16H66a16 16 0 0 1-16-16z" fill="#4A2E1C"></path>
<g transform="rotate(-24 130 262.4)"><ellipse cx="82" cy="296" rx="46" ry="82" fill="url(#alaI)" stroke="#0A4530" stroke-opacity=".5" stroke-width="4"></ellipse></g><g transform="rotate(24 590 262.4)"><ellipse cx="638" cy="296" rx="46" ry="82" fill="url(#alaD)" stroke="#0A4530" stroke-opacity=".5" stroke-width="4"></ellipse></g>
<circle cx="187" cy="387.1823802163833" r="30" fill="#60C5FA" opacity=".5" filter="url(#glow)"></circle><circle cx="187" cy="387.1823802163833" r="17" fill="#8FD8FF" filter="url(#soft)"></circle><circle cx="360" cy="387.1823802163833" r="30" fill="#60C5FA" opacity=".5" filter="url(#glow)"></circle><circle cx="360" cy="387.1823802163833" r="17" fill="#8FD8FF" filter="url(#soft)"></circle><circle cx="533" cy="387.1823802163833" r="30" fill="#60C5FA" opacity=".5" filter="url(#glow)"></circle><circle cx="533" cy="387.1823802163833" r="17" fill="#8FD8FF" filter="url(#soft)"></circle>
<rect x="103" y="123" width="514" height="260.2" rx="19" fill="#61A66B" stroke="#197249" stroke-width="6"></rect>
<svg x="104.64" y="63.1" width="510.7" height="70.9" viewBox="0 0 648 90" overflow="visible">
<path d="M544.458 21.5503C706.997 3.89789 639.254 43.1834 595.83 81.5311C381.479 91.5597 259.752 92.7366 38.078 81.5311C14.5208 46.9835 -53.3782 13.0269 84.5573 21.5503C88.4848 2.97933 135.272 6.14805 221.549 12.6642C306.795 -6.27807 333.018 -0.50179 391.47 12.3738L392.789 12.6642C526.245 0.56285 539.211 6.75506 544.458 21.5503Z" fill="#ED4B14" stroke="#ED4B14"></path>
</svg>
<svg x="94" y="54.4" width="532.0" height="93.6" viewBox="0 0 648 114" overflow="visible">
<path d="M544.458 27.2268C706.997 4.81418 639.254 54.6935 595.83 103.382C381.479 116.115 259.752 117.609 38.078 103.382C14.5208 59.5184 -53.3782 16.405 84.5573 27.2268C88.4848 3.64791 135.272 7.67112 221.549 15.9445C306.795 -8.10587 333.018 -0.771935 391.47 15.5758L392.789 15.9445C526.245 0.579799 539.211 8.44182 544.458 27.2268Z" fill="#EE690E" stroke="#EE690E"></path>
</svg>
<rect x="122" y="142" width="476" height="222.2" rx="12" fill="#16241D"></rect>
<g clip-path="url(#caraClip)"><svg x="122" y="142.0" width="476.0" height="222.2" viewBox="0 0 647 302" overflow="visible">
<rect width="647" height="302" fill="#1E1E1E"></rect>
<g clip-path="url(#cara_clip0_52_2)">
<rect width="647" height="302" fill="white"></rect>
<rect y="-1" width="647" height="303" fill="#659327"></rect>
<ellipse cx="319" cy="-202.5" rx="397" ry="382.5" fill="#588EA9"></ellipse>
<path d="M543.958 -28.2193C706.497 -49.8385 638.754 -1.72482 595.33 45.2404C380.979 57.5226 259.252 58.9639 37.578 45.2404C14.0208 2.92921 -53.8782 -38.658 84.0573 -28.2193C87.9848 -50.9635 134.772 -47.0827 221.049 -39.1022C306.295 -62.3012 332.518 -55.2269 390.97 -39.4579L392.289 -39.1022C525.745 -53.923 538.711 -46.3393 543.958 -28.2193Z" fill="#ED4B14" stroke="#ED4B14"></path>
<path d="M507.973 40.5895C648.404 30.8707 589.875 52.4999 552.358 73.6126C367.161 79.134 261.991 79.7819 70.4669 73.6126C50.1138 54.592 -8.55013 35.8968 110.624 40.5895C114.018 30.365 154.441 32.1096 228.984 35.6972C302.635 25.2683 325.292 28.4485 375.794 35.5373L376.933 35.6972C492.237 29.0346 503.44 32.4438 507.973 40.5895Z" fill="#EE690E" stroke="#EE690E"></path>
<path d="M488.051 61.2451C614.163 50.138 561.602 74.857 527.91 98.9859C361.597 105.296 267.151 106.037 95.1563 98.9859C76.8786 77.248 24.1965 55.8821 131.219 61.2451C134.266 49.56 170.568 51.5538 237.509 55.6539C303.651 43.7351 323.997 47.3697 369.35 55.4712L370.373 55.6539C473.92 48.0395 483.98 51.9358 488.051 61.2451Z" fill="#E97927" stroke="#E97927"></path>
<circle cx="154.5" cy="130.5" r="77.5" fill="white"></circle>
<path d="M147.269 89.0896C167.372 89.0896 183.802 108.327 183.802 132.236C183.802 156.145 167.372 175.383 147.269 175.383C127.166 175.382 110.736 156.145 110.736 132.236C110.736 108.327 127.166 89.0897 147.269 89.0896Z" fill="#58302E" stroke="#58302E"></path>
<path d="M128.5 89.2021C130.669 100.667 139.704 109.702 151.169 111.872C139.704 114.042 130.67 123.076 128.5 134.541C126.33 123.076 117.295 114.041 105.83 111.872C117.296 109.703 126.331 100.668 128.5 89.2021Z" fill="white" stroke="white"></path>
<path d="M73 -2.66992C75.1692 8.79537 84.2037 17.8304 95.6689 20C84.204 22.1695 75.1695 31.204 73 42.6689C70.8304 31.2037 61.7954 22.1692 50.3301 20C61.7957 17.8307 70.8307 8.79567 73 -2.66992Z" fill="#FFA300" stroke="#FFA300"></path>
<path d="M612 180.33C614.169 191.795 623.204 200.83 634.669 203C623.204 205.17 614.17 214.204 612 225.669C609.83 214.204 600.795 205.169 589.33 203C600.796 200.831 609.831 191.796 612 180.33Z" fill="#FFA300" stroke="#FFA300"></path>
<path d="M94 219.623C95.7887 227.786 102.214 234.211 110.376 236C102.214 237.789 95.789 244.214 94 252.376C92.2109 244.214 85.7856 237.789 77.623 236C85.7859 234.211 92.2112 227.786 94 219.623Z" fill="#FFA300" stroke="#FFA300"></path>
<path d="M64.5836 58.7493C88.0197 37.2029 123.837 20.7861 170.386 32.2777L171.488 32.555L171.573 32.5765L171.646 32.6263C203.136 54.1171 222.813 72.0786 233.58 92.139C244.357 112.22 246.171 134.336 242.103 164.046L242.092 164.123L242.059 164.194C221.412 207.398 180.092 224.689 138.465 216.547C96.8529 208.408 54.9777 174.872 33.0563 116.54L33.0534 116.532C32.2198 114.193 32.3469 110.75 33.3121 106.632C34.2821 102.495 36.1162 97.6035 38.7799 92.3236C44.108 81.7624 52.7781 69.603 64.5836 58.7493ZM184.27 93.3118C173.656 80.5522 159.581 74.5291 145.779 74.8636C118.128 75.534 91.8626 101.657 96.5114 149.478L96.5153 149.519L96.526 149.559C99.2117 159.63 106.338 167.906 115.672 173.885C125.008 179.864 136.582 183.567 148.232 184.482C171.51 186.31 195.298 177 202 152.205L202.016 152.141V152.075C202.016 125.535 194.882 106.069 184.27 93.3118Z" fill="#E7BB52"></path>
<path d="M98.6033 154.045C100.123 156.882 101.841 159.754 103.767 162.656C101.66 159.994 99.9139 157.118 98.6033 154.045C48.8518 61.2058 210.482 5.76682 201.517 152.075C201.517 46.2654 87.7527 54.2011 97.0102 149.43C97.4325 151.013 97.9664 152.553 98.6033 154.045Z" fill="#816825"></path>
<path d="M201.517 152.075C210.756 1.29633 38.8152 64.782 103.767 162.656C100.637 158.701 98.3016 154.272 97.0102 149.43C87.7527 54.2011 201.517 46.2654 201.517 152.075Z" stroke="#816825"></path>
<circle cx="77.5" cy="77.5" r="77.5" transform="matrix(-1 0 0 1 571.1 52.5)" fill="white"></circle>
<path d="M500.831 88.5892C480.728 88.5892 464.298 107.826 464.298 131.736C464.298 155.645 480.728 174.882 500.831 174.882C520.934 174.882 537.364 155.645 537.364 131.736C537.364 107.826 520.934 88.5893 500.831 88.5892Z" fill="#58302E" stroke="#58302E"></path>
<path d="M479.5 89.2015C477.331 100.667 468.296 109.702 456.831 111.871C468.296 114.041 477.33 123.075 479.5 134.54C481.67 123.075 490.705 114.041 502.17 111.871C490.704 109.702 481.669 100.667 479.5 89.2015Z" fill="white" stroke="white"></path>
<path d="M583.518 58.249C560.081 36.7026 524.264 20.286 477.715 31.7773L476.613 32.0547L476.528 32.0762L476.455 32.126C444.965 53.6167 425.288 71.5783 414.521 91.6387C403.744 111.719 401.93 133.835 405.998 163.546L406.009 163.623L406.042 163.693C426.69 206.898 468.009 224.189 509.636 216.047C551.248 207.907 593.124 174.372 615.045 116.04L615.048 116.031C615.881 113.693 615.754 110.249 614.789 106.132C613.819 101.994 611.985 97.1031 609.321 91.8232C603.993 81.2621 595.323 69.1026 583.518 58.249ZM463.83 92.8115C474.444 80.0521 488.52 74.0288 502.321 74.3633C529.972 75.0336 556.237 101.157 551.589 148.978L551.585 149.019L551.574 149.059C548.888 159.129 541.763 167.406 532.428 173.385C523.092 179.364 511.518 183.066 499.868 183.981C476.59 185.81 452.802 176.5 446.101 151.705L446.084 151.641V151.574C446.084 125.035 453.218 105.569 463.83 92.8115Z" fill="#E7BB52"></path>
<path d="M549.497 153.546C547.977 156.382 546.26 159.254 544.334 162.156C546.44 159.494 548.187 156.618 549.497 153.546C599.249 60.7059 437.619 5.26694 446.583 151.575C446.583 45.7655 560.348 53.7012 551.09 148.93C550.668 150.513 550.134 152.053 549.497 153.546Z" fill="#816825"></path>
<path d="M446.583 151.575C437.345 0.796452 609.285 64.2821 544.334 162.156C547.464 158.201 549.799 153.772 551.09 148.93C560.348 53.7012 446.583 45.7655 446.583 151.575Z" stroke="#816825"></path>
<path d="M626 59.623C627.789 67.7856 634.214 74.2109 642.376 76C634.214 77.789 627.789 84.2138 626 92.376C624.211 84.2135 617.786 77.7887 609.623 76C617.786 74.2112 624.211 67.7859 626 59.623Z" fill="#FFA300" stroke="#FFA300"></path>
<path d="M43 82.6172C45.8579 101.343 60.6559 116.142 79.3818 119C60.6562 121.858 45.8583 136.656 43 155.382C40.1417 136.656 25.3431 121.858 6.61719 119C25.3434 116.142 40.142 101.343 43 82.6172Z" fill="#FFA300" stroke="#FFA300"></path>
<path d="M541 224.617C543.858 243.343 558.656 258.142 577.382 261C558.656 263.858 543.858 278.656 541 297.382C538.142 278.656 523.343 263.858 504.617 261C523.343 258.142 538.142 243.343 541 224.617Z" fill="#FFA300" stroke="#FFA300"></path>
<ellipse cx="323.142" cy="202.078" rx="85.142" ry="110.31" fill="black" fill-opacity="0.1"></ellipse>
<ellipse cx="323.142" cy="190.833" rx="85.142" ry="110.845" fill="#B77C38"></ellipse>
<ellipse cx="323.716" cy="169.845" rx="85.142" ry="110.845" fill="#7A463B"></ellipse>
<ellipse cx="323" cy="252" rx="42" ry="19" fill="#B35C52"></ellipse>
<path d="M395.689 181.611C446.968 109.046 380.412 16.2742 322.585 20.1156C271.305 17.1927 198.201 105.372 249.482 181.611C251.664 198.144 293.125 197.226 320.402 239.478C322.297 241.506 323.491 241.509 325.858 239.478C353.135 197.226 393.507 198.144 395.689 181.611Z" fill="#E6A22A" stroke="#E6A22A"></path>
<path d="M395.576 183.424C395.71 182.964 395.81 182.49 395.875 182C396.164 182.506 396.049 182.964 395.576 183.424C391.277 198.27 352.494 198.632 326.032 239C354.97 192.31 391.126 187.761 395.576 183.424Z" fill="#AE762A"></path>
<path d="M395.875 182C393.693 198.286 353.314 197.381 326.032 239C358.041 187.354 398.882 187.27 395.875 182Z" stroke="#AE762A"></path>
<path d="M249.495 183.424C249.359 182.964 249.258 182.49 249.191 182C248.899 182.506 249.016 182.964 249.495 183.424C253.855 198.27 293.193 198.632 320.032 239C290.681 192.31 254.008 187.761 249.495 183.424Z" fill="#AE762A"></path>
<path d="M249.191 182C251.405 198.286 292.361 197.381 320.032 239C287.566 187.354 246.142 187.27 249.191 182Z" stroke="#AE762A"></path>
<path d="M335.058 159.063C367.681 100.406 361.086 74.6596 328.877 39.6021C328.193 38.8576 326.79 39.5542 327.035 40.5159C337.487 81.5357 340.323 108.132 333.094 158.666C332.943 159.718 334.518 160.035 335.058 159.063Z" fill="#EEB453" stroke="#EEB453"></path>
<path d="M283.536 77.0774C266.653 63.7918 270.458 54.7994 277.229 54.1128C294.113 67.3984 290.308 76.3908 283.536 77.0774Z" fill="#AA6718" stroke="#AA6718"></path>
<path d="M362.364 75.2391C379.247 61.9535 375.442 52.9612 368.671 52.2745C351.787 65.5601 355.592 74.5525 362.364 75.2391Z" fill="#AA6718" stroke="#AA6718"></path>
<circle cx="498" cy="203" r="12" fill="#E7BB52"></circle>
<circle cx="150" cy="203" r="12" fill="#E7BB52"></circle>
</g>
<defs>
<clipPath id="cara_clip0_52_2">
<rect width="647" height="302" fill="white"></rect>
</clipPath>
</defs>
</svg></g>
</svg>